<svg width="81" height="16" viewBox="0 0 81 16" fill="none" xmlns="http://www.w3.org/2000/svg">
<path d="M5.04025 2.436C6.36025 2.436 7.51825 2.694 8.51425 3.21C9.52225 3.726 10.2963 4.464 10.8363 5.424C11.3883 6.372 11.6643 7.476 11.6643 8.736C11.6643 9.996 11.3883 11.1 10.8363 12.048C10.2963 12.984 9.52225 13.71 8.51425 14.226C7.51825 14.742 6.36025 15 5.04025 15H0.64825V2.436H5.04025ZM4.95025 12.858C6.27025 12.858 7.29025 12.498 8.01025 11.778C8.73025 11.058 9.09025 10.044 9.09025 8.736C9.09025 7.428 8.73025 6.408 8.01025 5.676C7.29025 4.932 6.27025 4.56 4.95025 4.56H3.16825V12.858H4.95025ZM22.8206 9.798C22.8206 10.158 22.7966 10.482 22.7486 10.77H15.4586C15.5186 11.49 15.7706 12.054 16.2146 12.462C16.6586 12.87 17.2046 13.074 17.8526 13.074C18.7886 13.074 19.4546 12.672 19.8506 11.868H22.5686C22.2806 12.828 21.7286 13.62 20.9126 14.244C20.0966 14.856 19.0946 15.162 17.9066 15.162C16.9466 15.162 16.0826 14.952 15.3146 14.532C14.5586 14.1 13.9646 13.494 13.5326 12.714C13.1126 11.934 12.9026 11.034 12.9026 10.014C12.9026 8.982 13.1126 8.076 13.5326 7.296C13.9526 6.516 14.5406 5.916 15.2966 5.496C16.0526 5.076 16.9226 4.866 17.9066 4.866C18.8546 4.866 19.7006 5.07 20.4446 5.478C21.2006 5.886 21.7826 6.468 22.1906 7.224C22.6106 7.968 22.8206 8.826 22.8206 9.798ZM20.2106 9.078C20.1986 8.43 19.9646 7.914 19.5086 7.53C19.0526 7.134 18.4946 6.936 17.8346 6.936C17.2106 6.936 16.6826 7.128 16.2506 7.512C15.8306 7.884 15.5726 8.406 15.4766 9.078H20.2106ZM29.232 7.098H27.486V15H24.93V7.098H23.796V5.028H24.93V4.524C24.93 3.3 25.278 2.4 25.974 1.824C26.67 1.248 27.72 0.978 29.124 1.014V3.138C28.512 3.126 28.086 3.228 27.846 3.444C27.606 3.66 27.486 4.05 27.486 4.614V5.028H29.232V7.098ZM32.143 3.84C31.699 3.84 31.327 3.702 31.027 3.426C30.739 3.138 30.595 2.784 30.595 2.364C30.595 1.944 30.739 1.596 31.027 1.32C31.327 1.032 31.699 0.887999 32.143 0.887999C32.587 0.887999 32.953 1.032 33.241 1.32C33.541 1.596 33.691 1.944 33.691 2.364C33.691 2.784 33.541 3.138 33.241 3.426C32.953 3.702 32.587 3.84 32.143 3.84ZM33.385 5.028V15H30.865V5.028H33.385Z" fill="white"/>
<path d="M43.0028 8.556C43.7108 8.688 44.2928 9.042 44.7488 9.618C45.2048 10.194 45.4328 10.854 45.4328 11.598C45.4328 12.27 45.2648 12.864 44.9288 13.38C44.6048 13.884 44.1308 14.28 43.5068 14.568C42.8828 14.856 42.1448 15 41.2928 15H35.8748V2.436H41.0588C41.9108 2.436 42.6428 2.574 43.2548 2.85C43.8788 3.126 44.3468 3.51 44.6588 4.002C44.9828 4.494 45.1448 5.052 45.1448 5.676C45.1448 6.408 44.9468 7.02 44.5508 7.512C44.1668 8.004 43.6508 8.352 43.0028 8.556ZM38.3948 7.62H40.6988C41.2988 7.62 41.7608 7.488 42.0848 7.224C42.4088 6.948 42.5708 6.558 42.5708 6.054C42.5708 5.55 42.4088 5.16 42.0848 4.884C41.7608 4.608 41.2988 4.47 40.6988 4.47H38.3948V7.62ZM40.9328 12.948C41.5448 12.948 42.0188 12.804 42.3548 12.516C42.7028 12.228 42.8768 11.82 42.8768 11.292C42.8768 10.752 42.6968 10.332 42.3368 10.032C41.9768 9.72 41.4908 9.564 40.8788 9.564H38.3948V12.948H40.9328ZM46.7932 9.978C46.7932 8.97 46.9912 8.076 47.3872 7.296C47.7952 6.516 48.3412 5.916 49.0252 5.496C49.7212 5.076 50.4952 4.866 51.3472 4.866C52.0912 4.866 52.7392 5.016 53.2912 5.316C53.8552 5.616 54.3052 5.994 54.6412 6.45V5.028H57.1792V15H54.6412V13.542C54.3172 14.01 53.8672 14.4 53.2912 14.712C52.7272 15.012 52.0732 15.162 51.3292 15.162C50.4892 15.162 49.7212 14.946 49.0252 14.514C48.3412 14.082 47.7952 13.476 47.3872 12.696C46.9912 11.904 46.7932 10.998 46.7932 9.978ZM54.6412 10.014C54.6412 9.402 54.5212 8.88 54.2812 8.448C54.0412 8.004 53.7172 7.668 53.3092 7.44C52.9012 7.2 52.4632 7.08 51.9952 7.08C51.5272 7.08 51.0952 7.194 50.6992 7.422C50.3032 7.65 49.9792 7.986 49.7272 8.43C49.4872 8.862 49.3672 9.378 49.3672 9.978C49.3672 10.578 49.4872 11.106 49.7272 11.562C49.9792 12.006 50.3032 12.348 50.6992 12.588C51.1072 12.828 51.5392 12.948 51.9952 12.948C52.4632 12.948 52.9012 12.834 53.3092 12.606C53.7172 12.366 54.0412 12.03 54.2812 11.598C54.5212 11.154 54.6412 10.626 54.6412 10.014ZM65.1664 4.884C66.3544 4.884 67.3144 5.262 68.0464 6.018C68.7784 6.762 69.1444 7.806 69.1444 9.15V15H66.6244V9.492C66.6244 8.7 66.4264 8.094 66.0304 7.674C65.6344 7.242 65.0944 7.026 64.4104 7.026C63.7144 7.026 63.1624 7.242 62.7544 7.674C62.3584 8.094 62.1604 8.7 62.1604 9.492V15H59.6404V5.028H62.1604V6.27C62.4964 5.838 62.9224 5.502 63.4384 5.262C63.9664 5.01 64.5424 4.884 65.1664 4.884ZM77.4448 15L74.0608 10.752V15H71.5408V1.68H74.0608V9.258L77.4088 5.028H80.6848L76.2928 10.032L80.7208 15H77.4448Z" fill="#5CE1E6"/>
</svg>
